<?xml version="1.0" standalone="no"?>
<!DOCTYPE svg PUBLIC "-//W3C//DTD SVG 20010904//EN"
 "http://www.w3.org/TR/2001/REC-SVG-20010904/DTD/svg10.dtd">
<svg version="1.0" xmlns="http://www.w3.org/2000/svg"
 width="852.000000pt" height="852.000000pt" viewBox="0 0 852.000000 852.000000"
 preserveAspectRatio="xMidYMid meet">
<metadata>
Created by potrace 1.14, written by Peter Selinger 2001-2017
</metadata>
<g transform="translate(0.000000,852.000000) scale(0.100000,-0.100000)"
fill="#000000" stroke="none">
<path d="M2730 8119 c-126 -6 -162 -9 -280 -25 -59 -8 -78 -12 -100 -19 -10
-3 -27 -7 -37 -9 -29 -6 -163 -52 -268 -92 -11 -4 -22 -8 -25 -8 -6 -2 -145
-82 -180 -104 -14 -9 -28 -15 -32 -14 -5 1 -8 -2 -8 -6 0 -5 -21 -24 -47 -43
-69 -48 -225 -195 -273 -256 -50 -63 -100 -134 -100 -142 0 -5 -4 -11 -8 -13
-7 -3 -86 -160 -115 -227 -15 -38 -47 -150 -54 -191 -3 -19 -9 -43 -15 -53
-20 -39 -30 -345 -16 -492 12 -117 58 -266 126 -402 63 -127 72 -127 72 0 -1
56 1 111 4 122 2 11 7 42 10 69 4 27 9 53 12 58 3 5 7 21 10 36 2 15 18 68 34
117 56 173 84 260 86 270 1 6 11 30 21 54 l19 44 33 -74 c68 -152 82 -189 73
-189 -4 0 -2 -4 4 -8 11 -7 94 -200 94 -218 0 -31 111 -162 206 -242 42 -37
153 -106 159 -101 1 2 5 69 9 149 3 80 8 168 11 195 7 62 35 197 43 210 4 6 7
12 7 15 1 10 28 85 34 95 9 16 12 36 16 110 7 145 17 186 70 300 49 108 160
227 249 269 28 13 69 32 91 42 31 14 64 18 145 18 58 0 119 -3 135 -6 54 -10
120 -32 133 -45 7 -7 19 -13 25 -13 35 -1 169 -137 194 -197 10 -24 21 -43 26
-43 4 0 7 -8 7 -18 0 -10 4 -22 9 -27 6 -6 12 -21 14 -35 3 -14 10 -36 16 -50
29 -67 35 -269 12 -405 -15 -91 -47 -197 -63 -206 -7 -5 -10 -9 -5 -9 4 0 -3
-19 -15 -42 -12 -24 -23 -49 -24 -56 -2 -11 48 -84 80 -118 6 -6 34 -38 62
-70 55 -63 169 -176 273 -271 35 -32 104 -96 152 -142 96 -92 110 -103 125
-93 12 8 94 128 94 137 0 3 16 30 35 60 40 63 108 193 111 215 2 8 7 23 13 35
38 81 55 126 91 247 43 143 44 147 60 243 17 95 18 340 3 425 -16 88 -72 321
-81 335 -4 6 -7 12 -7 15 -3 26 -118 232 -163 292 -95 127 -113 147 -212 230
-125 104 -129 108 -136 108 -3 0 -19 10 -36 21 -29 21 -150 83 -218 112 -43
18 -273 86 -315 92 -16 3 -46 8 -65 11 -41 8 -105 13 -177 16 -28 1 -50 4 -48
8 4 7 -19 6 -185 -1z"/>
<path d="M2456 6663 c-37 -56 -79 -163 -101 -257 -3 -11 -9 -54 -15 -95 -5
-42 -12 -98 -16 -126 -10 -76 -11 -195 -2 -245 16 -89 41 -195 49 -211 4 -9
39 -37 77 -63 94 -64 216 -195 274 -294 43 -72 33 -78 -24 -14 -29 32 -71 71
-92 87 -64 49 -159 114 -196 136 -19 11 -48 28 -65 39 -16 11 -50 29 -75 41
-25 12 -82 46 -127 75 -46 29 -83 51 -83 49 0 -9 -153 97 -211 145 -106 88
-187 184 -231 274 -25 51 -35 56 -47 24 -44 -118 -26 -327 44 -483 l25 -57
-28 7 c-15 4 -38 9 -52 11 -14 2 -41 7 -60 10 -70 12 -128 16 -255 18 -200 2
-217 -3 -143 -47 71 -42 172 -133 232 -209 30 -39 69 -100 69 -108 -1 -3 3
-15 8 -28 37 -96 -28 -152 -396 -341 -60 -31 -116 -61 -123 -68 -6 -6 -22 -15
-35 -19 -12 -4 -24 -10 -27 -14 -3 -3 -32 -23 -65 -43 -80 -49 -230 -169 -227
-182 3 -11 20 -11 72 -1 102 20 164 25 252 22 53 -3 101 -7 106 -10 5 -3 24
-8 43 -11 19 -3 36 -10 37 -16 2 -5 8 -7 13 -3 13 8 72 -31 107 -70 77 -87 80
-227 12 -501 -20 -82 -7 -85 67 -17 62 56 55 51 170 135 123 91 383 240 436
251 7 2 23 8 37 13 14 6 45 19 70 28 25 9 54 21 65 26 11 5 34 11 50 13 80 11
86 38 10 51 -11 3 -74 13 -140 25 -66 11 -126 23 -133 25 -15 6 57 85 76 85 7
0 12 4 12 8 0 10 176 112 234 136 32 13 103 34 171 51 6 1 17 4 25 7 51 19
152 30 297 34 92 2 164 1 160 -2 -6 -7 -21 -9 -111 -19 -26 -3 -78 -14 -113
-25 -36 -11 -76 -22 -90 -24 -25 -5 -86 -23 -113 -33 -8 -4 -17 -7 -20 -7 -12
-3 -167 -88 -184 -101 -23 -17 -13 -33 25 -40 13 -3 48 -9 78 -15 104 -19 212
-52 208 -64 -2 -6 -16 -18 -33 -26 -75 -39 -176 -121 -249 -202 -89 -100 -120
-146 -155 -230 -24 -58 -22 -81 3 -60 8 7 17 9 20 5 4 -3 7 -1 7 5 0 6 17 16
38 23 20 7 37 11 37 9 0 -2 10 2 23 9 35 19 88 25 197 25 104 0 166 -13 253
-55 49 -23 141 -105 142 -126 0 -7 4 -13 9 -13 7 0 39 -71 49 -110 12 -48 12
-131 1 -170 -7 -25 -14 -53 -16 -64 -8 -46 -73 -153 -120 -201 -29 -29 -50
-55 -46 -59 7 -6 104 1 198 15 88 13 87 14 62 -33 -25 -47 -139 -166 -185
-194 -18 -10 -32 -22 -32 -25 0 -12 42 -15 83 -7 21 5 50 10 65 12 15 2 38 8
52 13 89 34 186 67 193 65 4 -1 7 2 7 7 0 5 10 13 23 17 22 7 91 52 137 89 83
68 150 154 150 194 0 4 -36 7 -79 5 -70 -2 -83 1 -115 22 -20 14 -37 30 -37
37 -5 53 -4 128 2 157 4 19 10 46 13 60 2 14 9 45 15 70 5 24 8 46 6 49 -3 2
-23 -13 -45 -33 -43 -39 -61 -43 -103 -23 -33 15 -47 46 -47 105 1 59 30 172
50 192 3 3 6 14 8 25 2 11 13 40 24 64 17 36 18 45 7 52 -8 5 -17 9 -21 9 -5
0 -50 7 -100 16 -51 9 -106 18 -123 19 -16 2 -39 4 -50 5 -11 1 20 12 69 25
80 21 158 33 266 40 19 2 69 6 110 11 94 9 182 10 240 0 25 -4 59 -9 77 -11
41 -5 90 -30 102 -54 21 -39 7 -124 -36 -209 -22 -45 -38 -82 -34 -83 3 0 60
-2 126 -4 66 -1 140 -8 165 -15 25 -8 50 -14 57 -16 27 -5 82 -26 118 -44 42
-21 97 -78 89 -91 -3 -5 -1 -9 4 -9 19 0 37 -87 36 -177 0 -94 8 -112 36 -78
6 8 21 17 32 21 28 8 141 126 180 185 17 27 35 49 40 49 4 0 7 3 6 8 -1 7 61
145 88 195 8 15 13 27 9 27 -3 0 1 15 9 34 8 19 13 36 10 38 -2 3 1 20 7 39
19 63 19 299 0 299 -4 0 -15 -15 -23 -34 -25 -51 -77 -106 -142 -148 -33 -21
-63 -38 -68 -38 -4 0 -8 11 -8 25 0 42 -75 164 -94 153 -4 -2 -20 6 -36 17
-29 20 -30 22 -27 95 2 41 0 91 -4 110 -4 19 -10 46 -12 60 -12 68 -71 217
-107 271 -22 33 -40 63 -40 65 0 3 -28 42 -62 87 -62 81 -216 239 -364 372
-162 146 -334 321 -414 421 -128 160 -222 363 -229 494 -2 30 -5 64 -6 75 -1
11 -3 25 -4 32 -2 20 -27 4 -41 -25 -13 -29 -52 -147 -65 -197 -4 -16 -9 -87
-10 -156 -4 -187 14 -231 160 -370 62 -59 166 -154 225 -205 61 -54 310 -305
310 -314 0 -4 11 -20 25 -36 14 -16 28 -37 31 -46 3 -10 10 -18 15 -18 5 0 9
-7 9 -15 0 -8 5 -15 10 -15 6 0 10 -6 10 -13 0 -7 8 -22 18 -33 10 -10 21 -28
25 -39 l7 -20 -15 20 c-85 110 -257 280 -485 480 -25 22 -62 57 -82 78 -21 21
-38 36 -38 33 0 -15 -283 280 -325 339 -11 15 -32 42 -47 59 -15 17 -28 35
-28 40 0 5 -6 17 -14 25 -24 27 -104 193 -121 252 -8 31 -18 101 -20 154 -2
54 -9 103 -14 108 -6 6 -19 -5 -35 -30z m954 -1707 c76 -38 138 -96 202 -188
57 -82 73 -117 55 -124 -40 -15 -180 48 -192 87 -4 11 -9 18 -12 15 -13 -12
-88 121 -98 173 -2 12 -7 31 -10 42 -8 24 -3 24 55 -5z"/>
<path d="M6618 5455 c-2 -2 -21 -6 -43 -8 -22 -3 -53 -10 -68 -16 -16 -6 -33
-9 -38 -5 -5 3 -9 1 -9 -3 0 -5 -30 -22 -67 -37 -73 -31 -211 -116 -280 -172
-23 -19 -46 -34 -51 -34 -6 0 -12 -4 -14 -8 -10 -24 -249 -209 -293 -227 -57
-22 -92 -6 -82 37 4 13 6 26 7 30 1 14 62 122 98 176 19 28 33 54 31 57 -8 7
-160 -95 -230 -155 -35 -30 -77 -66 -93 -80 -32 -27 -80 -75 -111 -113 -41
-49 -130 -152 -135 -157 -3 -3 -37 -52 -75 -110 -39 -58 -73 -107 -76 -110 -4
-3 -28 -48 -54 -100 -26 -52 -53 -98 -59 -102 -6 -4 -8 -8 -3 -8 4 0 0 -11 -9
-25 -9 -14 -13 -25 -9 -25 4 0 0 -11 -9 -25 -9 -14 -14 -25 -11 -25 2 0 0 -12
-6 -27 -32 -84 -15 -87 57 -11 78 83 135 139 165 163 115 94 187 149 206 158
13 5 23 14 23 19 0 4 5 8 12 8 6 0 25 10 42 23 39 29 158 97 211 120 22 10 63
30 90 44 45 23 186 79 225 88 8 2 27 8 43 14 15 6 27 8 27 6 0 -3 10 1 23 9
23 15 164 47 232 52 22 2 63 6 90 8 39 5 45 3 27 -4 -13 -6 -37 -12 -52 -15
-16 -3 -40 -9 -54 -15 -15 -5 -26 -7 -26 -4 0 4 -6 2 -12 -4 -7 -6 -38 -17
-68 -26 -91 -25 -165 -53 -247 -92 -43 -21 -82 -39 -88 -40 -5 -1 -30 -14 -55
-28 -25 -14 -56 -31 -70 -38 -14 -7 -27 -15 -30 -18 -6 -6 -67 -47 -140 -92
-55 -34 -227 -165 -285 -216 -117 -102 -197 -178 -263 -246 -117 -120 -121
-125 -206 -226 -44 -52 -85 -99 -91 -105 -10 -9 -70 -91 -88 -121 -4 -8 27
-28 86 -57 50 -25 106 -58 123 -74 16 -15 52 -46 80 -68 27 -21 51 -42 54 -45
3 -3 23 -18 45 -35 22 -16 47 -36 55 -45 8 -9 32 -29 52 -44 37 -27 58 -28 58
-1 0 7 7 21 16 29 8 9 13 16 9 16 -3 0 0 10 7 23 6 12 13 27 14 32 1 6 11 26
22 45 11 19 35 64 53 100 63 124 219 387 271 455 35 46 81 111 101 142 14 21
35 49 48 64 13 14 37 43 54 65 52 70 157 181 213 227 37 29 139 97 147 97 4 0
35 13 69 29 74 34 210 69 281 72 173 7 375 -16 375 -44 0 -4 4 -6 9 -2 5 3 50
-16 99 -41 l91 -47 31 26 c30 25 162 95 191 101 8 2 22 6 31 10 9 4 22 8 30
10 7 1 18 5 24 8 6 4 21 9 35 12 13 3 44 12 68 21 54 20 182 47 189 41 2 -3
13 -1 22 4 46 25 383 39 496 20 42 -6 78 -10 80 -7 6 6 -110 117 -175 168
-182 142 -392 255 -594 319 -18 6 -104 25 -192 41 -113 22 -203 26 -290 15
-27 -4 -72 -9 -100 -11 -27 -2 -57 -6 -65 -8 -20 -7 -123 -31 -135 -32 -5 0
-19 -5 -30 -11 -37 -21 -186 -64 -221 -64 -83 0 -84 71 -2 145 43 40 147 110
176 119 12 4 22 12 22 17 0 5 1 12 3 16 2 6 -29 14 -35 8z m-89 -559 c-2 -2
-22 -6 -44 -10 -29 -5 -36 -4 -25 3 13 10 79 16 69 7z"/>
<path d="M943 4423 c-32 -26 -62 -53 -66 -60 -4 -7 -13 -13 -20 -14 -7 0 -46
-39 -87 -85 -41 -47 -87 -97 -101 -112 -102 -107 -315 -469 -331 -562 0 -3 -5
-16 -10 -30 -5 -14 -12 -36 -14 -50 -3 -14 -9 -41 -14 -61 -12 -43 -30 -132
-36 -176 -5 -40 15 -45 39 -10 47 67 118 129 154 133 45 5 58 -9 55 -63 -2
-46 -36 -167 -53 -189 -5 -6 -7 -13 -4 -16 3 -2 0 -20 -6 -39 -5 -19 -12 -41
-14 -49 -2 -8 -11 -46 -20 -85 -9 -38 -19 -81 -21 -95 -2 -14 -7 -36 -10 -50
-3 -14 -8 -47 -10 -75 -2 -27 -6 -72 -9 -100 -11 -84 -13 -325 -5 -415 5 -47
11 -112 14 -145 3 -33 10 -77 15 -97 5 -21 7 -38 4 -38 -3 0 0 -7 7 -15 7 -8
10 -15 7 -15 -3 0 5 -35 19 -78 13 -43 25 -87 27 -97 2 -11 9 -32 15 -47 95
-231 117 -276 173 -359 21 -31 35 -59 32 -63 -4 -3 -2 -6 4 -6 5 0 26 -24 47
-54 35 -51 57 -76 162 -189 62 -66 77 -62 53 13 -6 19 -12 42 -14 50 -1 8 -7
28 -14 44 -6 16 -12 60 -12 99 -1 57 3 73 19 90 39 38 78 13 162 -103 24 -35
130 -150 205 -223 86 -85 264 -207 373 -257 28 -13 52 -28 52 -33 0 -6 3 -8 6
-5 3 4 29 -4 59 -17 47 -21 144 -54 297 -102 25 -7 59 -16 75 -19 15 -2 39 -7
53 -10 14 -3 50 -8 80 -11 55 -4 91 -9 100 -13 12 -5 302 0 310 5 6 4 10 0 10
-7 0 -9 3 -9 8 -2 4 6 14 11 22 11 39 1 187 18 239 28 41 8 220 58 254 71 20
7 37 12 37 9 0 -4 41 11 95 35 25 10 47 17 59 18 5 0 12 5 15 10 5 8 101 54
108 53 2 -1 28 15 58 34 30 20 55 32 55 28 0 -4 4 -3 8 4 7 12 137 103 147
103 3 0 13 8 23 17 10 10 38 34 63 55 107 88 196 173 294 282 75 84 255 319
278 363 14 28 105 176 137 223 10 14 21 37 25 50 4 14 15 36 25 50 32 47 31
57 -8 91 -20 17 -59 52 -87 78 -27 25 -81 71 -120 102 -38 31 -81 67 -95 80
-14 13 -57 49 -95 78 -39 30 -110 88 -158 128 -48 40 -91 73 -96 73 -4 0 -44
-53 -89 -117 -44 -65 -90 -130 -103 -144 -13 -14 -45 -50 -70 -80 -75 -87
-176 -184 -294 -281 -41 -35 -179 -120 -253 -157 -132 -67 -351 -104 -477 -82
-96 17 -117 21 -134 30 -9 5 -19 9 -24 9 -16 1 -115 41 -153 62 -96 54 -213
163 -279 261 -25 37 -45 70 -45 74 0 4 -9 20 -21 36 -18 25 -53 113 -65 159
-2 8 -12 49 -23 90 -34 126 -42 240 -28 422 7 98 37 248 49 248 5 0 7 4 4 8
-5 8 36 142 51 165 4 7 9 21 10 32 2 10 9 23 16 27 6 4 9 8 5 8 -9 0 88 189
137 265 55 87 140 198 196 257 49 52 83 97 77 103 -35 29 -179 32 -263 4 -56
-18 -91 -40 -297 -182 -54 -37 -102 -67 -107 -67 -6 0 -14 -6 -18 -12 -4 -7
-17 -20 -27 -28 -18 -14 -19 -13 -12 15 3 17 9 47 11 69 3 21 7 42 10 46 3 4
7 29 10 56 5 49 11 87 20 134 3 14 10 52 16 85 6 33 14 64 17 70 4 5 7 12 7
15 1 3 5 15 9 28 4 13 6 26 3 28 -14 15 -340 -179 -397 -236 -3 -3 -27 -23
-54 -44 -56 -45 -146 -134 -146 -144 0 -4 -27 -33 -59 -65 -33 -32 -79 -81
-103 -109 -87 -103 -121 -139 -132 -135 -6 2 -9 21 -8 43 1 21 5 71 7 109 3
39 7 81 10 95 3 14 7 83 10 154 3 71 12 161 21 200 8 39 17 82 20 96 2 14 7
32 10 40 13 34 16 178 5 199 -17 31 -32 27 -98 -26z"/>
<path d="M3255 4226 c-42 -146 -8 -286 94 -386 31 -30 91 -82 135 -114 97 -74
175 -151 192 -192 18 -43 25 -78 40 -209 22 -195 77 -307 221 -450 54 -53 69
-66 124 -104 28 -20 141 -113 159 -131 3 -3 34 -27 70 -54 36 -27 74 -59 85
-71 11 -11 47 -42 80 -67 33 -25 69 -54 80 -65 11 -10 51 -45 90 -77 135 -115
205 -182 205 -199 0 -4 9 -18 20 -30 27 -29 66 -112 75 -162 20 -108 21 -157
14 -520 -6 -270 32 -391 176 -570 51 -64 52 -65 100 -100 22 -17 42 -33 45
-36 6 -8 158 -99 165 -99 3 0 16 -2 29 -6 14 -3 32 -4 41 -2 15 3 14 5 -2 23
-34 37 -83 124 -103 186 -42 123 -30 321 27 439 31 65 77 129 86 120 2 -3 7
-31 11 -63 3 -32 8 -62 10 -66 3 -4 7 -18 10 -32 10 -51 108 -285 126 -299 4
-3 25 -32 47 -65 23 -34 48 -67 57 -74 9 -7 16 -18 16 -23 0 -35 216 -194 335
-246 178 -78 245 -92 455 -93 171 -2 208 3 361 47 68 20 129 37 134 38 84 22
309 152 396 230 32 28 91 107 85 114 -3 2 -37 -3 -76 -13 -53 -13 -93 -16
-158 -12 -116 8 -174 17 -188 28 -6 5 -13 7 -16 4 -16 -16 -229 73 -297 124
l-23 18 31 1 c17 0 33 -2 35 -6 11 -18 189 -2 321 29 44 10 89 20 100 22 21 4
48 13 80 28 44 19 80 32 88 31 4 -1 7 2 7 6 0 5 24 22 53 37 85 46 117 71 207
159 113 111 118 118 182 236 47 86 76 175 92 285 28 189 4 329 -92 535 -33 71
-190 260 -245 295 -8 6 -49 33 -91 62 -79 55 -289 149 -356 159 -8 2 -42 8
-75 13 -48 9 -226 16 -293 12 -25 -2 -6 -24 23 -28 119 -16 324 -206 351 -325
3 -13 8 -34 11 -48 15 -68 14 -182 -2 -233 -54 -164 -210 -293 -430 -353 -58
-16 -318 -29 -357 -18 -12 4 -5 16 33 55 38 39 116 170 125 209 0 3 4 16 7 30
4 14 9 39 12 55 7 36 7 218 1 237 -3 7 -8 31 -11 53 -8 46 -9 51 -19 85 -9 31
-49 123 -56 130 -3 3 -21 30 -40 60 -19 30 -48 70 -64 87 -28 31 -114 93 -130
93 -4 0 -4 -28 0 -62 12 -101 2 -209 -22 -233 -9 -8 -13 -15 -9 -15 10 0 -34
-60 -78 -107 -90 -95 -266 -124 -400 -65 -24 11 -67 36 -97 58 -51 36 -290
230 -405 330 -27 23 -79 66 -115 94 -36 29 -81 66 -100 83 -19 18 -66 56 -105
86 -38 29 -79 63 -91 75 -12 11 -38 35 -59 51 -21 17 -43 35 -49 40 -36 34
-143 97 -194 114 -33 10 -100 22 -148 26 -111 8 -183 14 -209 20 -11 2 -26 4
-33 4 -21 1 -81 65 -92 97 -5 16 -16 66 -24 111 -34 196 -109 267 -301 287
-141 14 -176 20 -181 28 -3 4 -9 6 -14 3 -9 -6 -76 17 -125 42 -39 21 -106 84
-99 95 3 4 0 8 -7 8 -7 0 -9 3 -6 7 4 3 2 12 -4 19 -6 8 -14 37 -18 65 -8 71
-26 73 -46 5z"/>
</g>
</svg>
